<svg xmlns="http://www.w3.org/2000/svg" xmlns:xlink="http://www.w3.org/1999/xlink" width="135px" height="135px" viewBox="0 0 135 135"><title>Combined Shape</title><g id="SmartClub" stroke="none" stroke-width="1" fill="none" fill-rule="evenodd"><g id="logo-smartclub-complet-black" fill="#000000"><path d="M105,0 C121.568542,-3.04359188e-15 135,13.4314575 135,30 L135,105 C135,121.568542 121.568542,135 105,135 L30,135 C13.4314575,135 2.02906125e-15,121.568542 0,105 L0,30 C-2.02906125e-15,13.4314575 13.4314575,3.04359188e-15 30,0 L105,0 Z M34.8140437,66.8831248 C34.5817205,64.1795777 32.2386464,62.1870553 29.4954143,62.40615 C26.7902137,62.6393 24.7852896,65.0204056 25.0184396,67.7256062 C26.4652919,84.5578737 38.179009,100.159903 54.1671414,106.545896 C59.8553382,108.819521 66.0156224,109.917476 72.1552372,109.917476 C83.5936388,109.917476 94.9725129,106.106053 103.137721,98.9718306 C105.183157,97.1851746 105.390677,94.0806428 103.605674,92.0360336 C101.819018,89.9897709 98.712833,89.7830777 96.6707042,91.5680802 C86.9404151,100.068131 70.5992507,102.523647 57.8165165,97.4174978 C45.1925226,92.3741837 35.9492027,80.1048754 34.8140437,66.8831248 Z M92.4186117,39.50289 C89.6580173,39.3003306 86.9801002,39.8732842 84.6610025,41.1324591 C83.6556468,41.6764756 82.6990707,42.3064765 81.8053293,43.0183279 C80.9421785,43.7062029 80.3750123,44.4122668 79.9153267,45.4242367 C79.4589481,46.4295925 79.1877666,47.5308538 79.2506013,48.6403829 C79.3489873,50.3741255 80.3898942,52.115309 82.0260776,52.6990106 C82.756118,52.9602708 83.5506467,52.9825937 84.3228524,52.9156251 C85.6423818,52.8015304 86.8552575,52.27901 87.7481722,51.2794417 C88.2533303,50.7139291 88.785772,50.3666845 89.4645525,50.0020777 C90.9734128,49.1926672 93.137904,49.4820376 94.5037327,50.6841653 C96.3408219,52.30464 95.8662543,54.8684624 95.1436548,56.7361422 C92.4657377,63.6496163 88.3194722,70.146397 85.5993896,73.2550627 C84.7114357,74.2670326 84.2724193,75.5658927 84.360884,76.9118788 C84.4501755,78.2553846 85.0586802,79.483969 86.0723037,80.3710962 C86.9982892,81.1846406 88.1665192,81.6211767 89.3868358,81.6211767 C89.5001037,81.6211767 89.6141984,81.6178696 89.7266395,81.6096019 C91.0726256,81.5219639 92.3020367,80.9134592 93.1899907,79.8981822 C97.3362563,75.1616008 101.796696,67.4998973 104.552329,60.3772496 C107.135994,53.7060199 105.871032,47.2522314 101.168348,43.1134068 C98.7831087,41.0100968 95.6760965,39.7285989 92.4186117,39.50289 Z M63.356721,28 C63.2434532,28 63.1285317,28.0033071 63.0160906,28.0115748 C61.6709313,28.0992127 60.4406934,28.7077175 59.5527394,29.7229945 C55.4064738,34.4595759 50.9468613,42.1212794 48.1912276,49.2439271 C45.6075626,55.9151568 46.872525,62.369772 51.5752086,66.5077699 C53.9596214,68.6110799 57.0666336,69.8925777 60.3249452,70.1191135 C63.0855395,70.3208461 65.7634566,69.7478925 68.0825543,68.4878908 C69.0862565,67.944701 70.0444862,67.3138734 70.9382276,66.6028488 C71.8013784,65.9149738 72.3685445,65.2089098 72.8282302,64.1969399 C73.2846088,63.192411 73.5557903,62.0903228 73.4921288,60.9807937 C73.3937428,59.2470512 72.3536626,57.5058677 70.7174793,56.9221661 C69.9874389,56.6609059 69.1920834,56.6377562 68.4198777,56.7047248 C67.101175,56.8196462 65.8882993,57.3421666 64.9953847,58.341735 C64.4902265,58.9072476 63.9569581,59.2544921 63.2790044,59.6190989 C61.770144,60.4293363 59.6056528,60.139139 58.2389974,58.9370114 C56.4019082,57.3165367 56.8773026,54.753541 57.599902,52.8850345 C60.2769924,45.9715603 64.4240847,39.4756065 67.1441672,36.366114 C68.0321212,35.3533173 68.4711376,34.055284 68.3818461,32.7092979 C68.2925546,31.3657921 67.6848766,30.1372077 66.6704264,29.2500805 C65.7444409,28.436536 64.5770377,28 63.356721,28 Z" id="Combined-Shape"></path></g></g></svg>