<svg xmlns="http://www.w3.org/2000/svg" viewBox="0 0 64 64">
  <rect width="64" height="64" rx="14" fill="#171717"/>
  <g fill="#fff" transform="translate(4 4) scale(.56)">
    <circle cx="28" cy="20" r="4.5" opacity=".44"/><circle cx="41" cy="16" r="4.5" opacity=".72"/><circle cx="54" cy="16" r="4.5"/><circle cx="67" cy="21" r="4.5" opacity=".62"/>
    <circle cx="19" cy="33" r="4.5" opacity=".78"/><circle cx="31" cy="32" r="4.5"/><circle cx="43" cy="31" r="4.5" opacity=".5"/><circle cx="55" cy="31" r="4.5" opacity=".26"/><circle cx="68" cy="33" r="4.5" opacity=".88"/><circle cx="80" cy="35" r="4.5" opacity=".5"/>
    <circle cx="16" cy="47" r="4.5"/><circle cx="29" cy="47" r="4.5" opacity=".68"/><circle cx="42" cy="47" r="4.5" opacity=".34"/><circle cx="55" cy="47" r="4.5" opacity=".18"/><circle cx="68" cy="47" r="4.5" opacity=".62"/><circle cx="83" cy="48" r="4.5"/>
    <circle cx="19" cy="61" r="4.5" opacity=".78"/><circle cx="31" cy="62" r="4.5"/><circle cx="43" cy="63" r="4.5" opacity=".48"/><circle cx="55" cy="63" r="4.5" opacity=".28"/><circle cx="68" cy="62" r="4.5" opacity=".92"/><circle cx="80" cy="61" r="4.5" opacity=".54"/>
    <circle cx="28" cy="75" r="4.5" opacity=".42"/><circle cx="41" cy="80" r="4.5" opacity=".72"/><circle cx="54" cy="81" r="4.5"/><circle cx="67" cy="76" r="4.5" opacity=".7"/>
  </g>
</svg>
